<?xml version="1.0" encoding="UTF-8" standalone="no"?>
<!DOCTYPE svg PUBLIC "-//W3C//DTD SVG 1.1//EN"
 "http://www.w3.org/Graphics/SVG/1.1/DTD/svg11.dtd">
<!-- Generated by graphviz version 2.40.1 (20161225.0304)
 -->
<!-- Title: dependencies Pages: 1 -->
<svg width="5374pt" height="284pt"
 viewBox="0.00 0.00 5374.00 284.00" xmlns="http://www.w3.org/2000/svg" xmlns:xlink="http://www.w3.org/1999/xlink">
<g id="graph0" class="graph" transform="scale(1 1) rotate(0) translate(4 280)">
<title>dependencies</title>
<polygon fill="#ffffff" stroke="transparent" points="-4,4 -4,-280 5370,-280 5370,4 -4,4"/>
<text text-anchor="start" x="2662.0091" y="-42.4" font-family="sans-serif" font-weight="bold" font-size="14.00" fill="#000000">Legend</text>
<polygon fill="#ffffb3" stroke="transparent" points="2449,-10 2449,-30 2469,-30 2469,-10 2449,-10"/>
<text text-anchor="start" x="2472.629" y="-15.4" font-family="sans-serif" font-size="14.00" fill="#000000"> &#160;Declarations</text>
<polygon fill="#8dd3c7" stroke="transparent" points="2562,-10 2562,-30 2582,-30 2582,-10 2562,-10"/>
<text text-anchor="start" x="2585.7251" y="-15.4" font-family="sans-serif" font-size="14.00" fill="#000000"> &#160;Module</text>
<polygon fill="#80b1d3" stroke="transparent" points="2648,-10 2648,-30 2668,-30 2668,-10 2648,-10"/>
<text text-anchor="start" x="2671.7812" y="-15.4" font-family="sans-serif" font-size="14.00" fill="#000000"> &#160;Bootstrap</text>
<polygon fill="#fdb462" stroke="transparent" points="2745,-10 2745,-30 2765,-30 2765,-10 2745,-10"/>
<text text-anchor="start" x="2768.6732" y="-15.4" font-family="sans-serif" font-size="14.00" fill="#000000"> &#160;Providers</text>
<polygon fill="#fb8072" stroke="transparent" points="2841,-10 2841,-30 2861,-30 2861,-10 2841,-10"/>
<text text-anchor="start" x="2864.7258" y="-15.4" font-family="sans-serif" font-size="14.00" fill="#000000"> &#160;Exports</text>
<g id="clust1" class="cluster">
<title>cluster_AppModule</title>
<polygon fill="none" stroke="#000000" stroke-dasharray="1,5" points="8,-70 8,-268 5358,-268 5358,-70 8,-70"/>
</g>
<g id="clust2" class="cluster">
<title>cluster_AppModule_declarations</title>
<polygon fill="none" stroke="#000000" points="150,-78 150,-130 5350,-130 5350,-78 150,-78"/>
</g>
<g id="clust35" class="cluster">
<title>cluster_AppModule_imports</title>
<polygon fill="none" stroke="#000000" points="16,-78 16,-130 142,-130 142,-78 16,-78"/>
</g>
<g id="clust37" class="cluster">
<title>cluster_AppModule_bootstrap</title>
<polygon fill="none" stroke="#000000" points="2676,-208 2676,-260 2800,-260 2800,-208 2676,-208"/>
</g>
<!-- AppComponent -->
<g id="node1" class="node">
<title>AppComponent</title>
<polygon fill="#ffffb3" stroke="#000000" points="5341.9399,-122 5236.0601,-122 5236.0601,-86 5341.9399,-86 5341.9399,-122"/>
<text text-anchor="middle" x="5289" y="-99.8" font-family="Times,serif" font-size="14.00" fill="#000000">AppComponent</text>
</g>
<!-- AppModule -->
<g id="node33" class="node">
<title>AppModule</title>
<polygon fill="#8dd3c7" stroke="#000000" points="2779.6571,-187 2776.6571,-191 2755.6571,-191 2752.6571,-187 2696.3429,-187 2696.3429,-151 2779.6571,-151 2779.6571,-187"/>
<text text-anchor="middle" x="2738" y="-164.8" font-family="Times,serif" font-size="14.00" fill="#000000">AppModule</text>
</g>
<!-- AppComponent&#45;&gt;AppModule -->
<g id="edge1" class="edge">
<title>AppComponent&#45;&gt;AppModule</title>
<path fill="none" stroke="#000000" d="M5289,-122.3802C5289,-146.2785 5289,-185 5289,-185 5289,-185 2789.8864,-185 2789.8864,-185"/>
<polygon fill="#000000" stroke="#000000" points="2789.8865,-181.5001 2779.8864,-185 2789.8864,-188.5001 2789.8865,-181.5001"/>
</g>
<!-- NavbarComponent -->
<g id="node2" class="node">
<title>NavbarComponent</title>
<polygon fill="#ffffb3" stroke="#000000" points="5218.0297,-122 5095.9703,-122 5095.9703,-86 5218.0297,-86 5218.0297,-122"/>
<text text-anchor="middle" x="5157" y="-99.8" font-family="Times,serif" font-size="14.00" fill="#000000">NavbarComponent</text>
</g>
<!-- NavbarComponent&#45;&gt;AppModule -->
<g id="edge2" class="edge">
<title>NavbarComponent&#45;&gt;AppModule</title>
<path fill="none" stroke="#000000" d="M5157,-122.3228C5157,-145.6602 5157,-183 5157,-183 5157,-183 2789.7314,-183 2789.7314,-183"/>
<polygon fill="#000000" stroke="#000000" points="2789.7315,-179.5001 2779.7314,-183 2789.7314,-186.5001 2789.7315,-179.5001"/>
</g>
<!-- BaseComponent -->
<g id="node3" class="node">
<title>BaseComponent</title>
<polygon fill="#ffffb3" stroke="#000000" points="5077.0438,-122 4968.9562,-122 4968.9562,-86 5077.0438,-86 5077.0438,-122"/>
<text text-anchor="middle" x="5023" y="-99.8" font-family="Times,serif" font-size="14.00" fill="#000000">BaseComponent</text>
</g>
<!-- BaseComponent&#45;&gt;AppModule -->
<g id="edge3" class="edge">
<title>BaseComponent&#45;&gt;AppModule</title>
<path fill="none" stroke="#000000" d="M5023,-122.2479C5023,-145.0179 5023,-181 5023,-181 5023,-181 2790.1055,-181 2790.1055,-181"/>
<polygon fill="#000000" stroke="#000000" points="2790.1056,-177.5001 2780.1055,-181 2790.1055,-184.5001 2790.1056,-177.5001"/>
</g>
<!-- MusicPlayerComponent -->
<g id="node4" class="node">
<title>MusicPlayerComponent</title>
<polygon fill="#ffffb3" stroke="#000000" points="4951.0898,-122 4798.9102,-122 4798.9102,-86 4951.0898,-86 4951.0898,-122"/>
<text text-anchor="middle" x="4875" y="-99.8" font-family="Times,serif" font-size="14.00" fill="#000000">MusicPlayerComponent</text>
</g>
<!-- MusicPlayerComponent&#45;&gt;AppModule -->
<g id="edge4" class="edge">
<title>MusicPlayerComponent&#45;&gt;AppModule</title>
<path fill="none" stroke="#000000" d="M4875,-122.1554C4875,-144.3519 4875,-179 4875,-179 4875,-179 2789.7292,-179 2789.7292,-179"/>
<polygon fill="#000000" stroke="#000000" points="2789.7292,-175.5001 2779.7292,-179 2789.7292,-182.5001 2789.7292,-175.5001"/>
</g>
<!-- HomeComponent -->
<g id="node5" class="node">
<title>HomeComponent</title>
<polygon fill="#ffffb3" stroke="#000000" points="4780.5451,-122 4665.4549,-122 4665.4549,-86 4780.5451,-86 4780.5451,-122"/>
<text text-anchor="middle" x="4723" y="-99.8" font-family="Times,serif" font-size="14.00" fill="#000000">HomeComponent</text>
</g>
<!-- HomeComponent&#45;&gt;AppModule -->
<g id="edge5" class="edge">
<title>HomeComponent&#45;&gt;AppModule</title>
<path fill="none" stroke="#000000" d="M4723,-122.0449C4723,-143.6623 4723,-177 4723,-177 4723,-177 2789.9175,-177 2789.9175,-177"/>
<polygon fill="#000000" stroke="#000000" points="2789.9176,-173.5001 2779.9175,-177 2789.9175,-180.5001 2789.9176,-173.5001"/>
</g>
<!-- NewsComponent -->
<g id="node6" class="node">
<title>NewsComponent</title>
<polygon fill="#ffffb3" stroke="#000000" points="4647.705,-122 4534.295,-122 4534.295,-86 4647.705,-86 4647.705,-122"/>
<text text-anchor="middle" x="4591" y="-99.8" font-family="Times,serif" font-size="14.00" fill="#000000">NewsComponent</text>
</g>
<!-- NewsComponent&#45;&gt;AppModule -->
<g id="edge6" class="edge">
<title>NewsComponent&#45;&gt;AppModule</title>
<path fill="none" stroke="#000000" d="M4591,-122.2843C4591,-143.3211 4591,-175 4591,-175 4591,-175 2789.7412,-175 2789.7412,-175"/>
<polygon fill="#000000" stroke="#000000" points="2789.7413,-171.5001 2779.7412,-175 2789.7412,-178.5001 2789.7413,-171.5001"/>
</g>
<!-- TvComponent -->
<g id="node7" class="node">
<title>TvComponent</title>
<polygon fill="#ffffb3" stroke="#000000" points="4516.3851,-122 4419.6149,-122 4419.6149,-86 4516.3851,-86 4516.3851,-122"/>
<text text-anchor="middle" x="4468" y="-99.8" font-family="Times,serif" font-size="14.00" fill="#000000">TvComponent</text>
</g>
<!-- TvComponent&#45;&gt;AppModule -->
<g id="edge7" class="edge">
<title>TvComponent&#45;&gt;AppModule</title>
<path fill="none" stroke="#000000" d="M4468,-122.1289C4468,-142.5724 4468,-173 4468,-173 4468,-173 2789.9071,-173 2789.9071,-173"/>
<polygon fill="#000000" stroke="#000000" points="2789.9071,-169.5001 2779.9071,-173 2789.907,-176.5001 2789.9071,-169.5001"/>
</g>
<!-- MusicComponent -->
<g id="node8" class="node">
<title>MusicComponent</title>
<polygon fill="#ffffb3" stroke="#000000" points="4401.3273,-122 4284.6727,-122 4284.6727,-86 4401.3273,-86 4401.3273,-122"/>
<text text-anchor="middle" x="4343" y="-99.8" font-family="Times,serif" font-size="14.00" fill="#000000">MusicComponent</text>
</g>
<!-- MusicComponent&#45;&gt;AppModule -->
<g id="edge8" class="edge">
<title>MusicComponent&#45;&gt;AppModule</title>
<path fill="none" stroke="#000000" d="M4343,-122.308C4343,-142.1455 4343,-171 4343,-171 4343,-171 2789.6951,-171 2789.6951,-171"/>
<polygon fill="#000000" stroke="#000000" points="2789.6952,-167.5001 2779.6951,-171 2789.6951,-174.5001 2789.6952,-167.5001"/>
</g>
<!-- AdminEntryComponent -->
<g id="node9" class="node">
<title>AdminEntryComponent</title>
<polygon fill="#ffffb3" stroke="#000000" points="4266.8243,-122 4115.1757,-122 4115.1757,-86 4266.8243,-86 4266.8243,-122"/>
<text text-anchor="middle" x="4191" y="-99.8" font-family="Times,serif" font-size="14.00" fill="#000000">AdminEntryComponent</text>
</g>
<!-- AdminEntryComponent&#45;&gt;AppModule -->
<g id="edge9" class="edge">
<title>AdminEntryComponent&#45;&gt;AppModule</title>
<path fill="none" stroke="#000000" d="M4191,-122.1686C4191,-141.0898 4191,-168 4191,-168 4191,-168 2789.9185,-168 2789.9185,-168"/>
<polygon fill="#000000" stroke="#000000" points="2789.9185,-164.5001 2779.9185,-168 2789.9184,-171.5001 2789.9185,-164.5001"/>
</g>
<!-- AdminComponent -->
<g id="node10" class="node">
<title>AdminComponent</title>
<polygon fill="#ffffb3" stroke="#000000" points="4097.2204,-122 3976.7796,-122 3976.7796,-86 4097.2204,-86 4097.2204,-122"/>
<text text-anchor="middle" x="4037" y="-99.8" font-family="Times,serif" font-size="14.00" fill="#000000">AdminComponent</text>
</g>
<!-- AdminComponent&#45;&gt;AppModule -->
<g id="edge10" class="edge">
<title>AdminComponent&#45;&gt;AppModule</title>
<path fill="none" stroke="#000000" d="M4037,-122.2667C4037,-140.5552 4037,-166 4037,-166 4037,-166 2789.7488,-166 2789.7488,-166"/>
<polygon fill="#000000" stroke="#000000" points="2789.7489,-162.5001 2779.7488,-166 2789.7488,-169.5001 2789.7489,-162.5001"/>
</g>
<!-- AdminNavComponent -->
<g id="node11" class="node">
<title>AdminNavComponent</title>
<polygon fill="#ffffb3" stroke="#000000" points="3958.5421,-122 3815.4579,-122 3815.4579,-86 3958.5421,-86 3958.5421,-122"/>
<text text-anchor="middle" x="3887" y="-99.8" font-family="Times,serif" font-size="14.00" fill="#000000">AdminNavComponent</text>
</g>
<!-- AdminNavComponent&#45;&gt;AppModule -->
<g id="edge11" class="edge">
<title>AdminNavComponent&#45;&gt;AppModule</title>
<path fill="none" stroke="#000000" d="M3887,-122.002C3887,-139.6754 3887,-164 3887,-164 3887,-164 2789.9136,-164 2789.9136,-164"/>
<polygon fill="#000000" stroke="#000000" points="2789.9137,-160.5001 2779.9136,-164 2789.9136,-167.5001 2789.9137,-160.5001"/>
</g>
<!-- AdminContentComponent -->
<g id="node12" class="node">
<title>AdminContentComponent</title>
<polygon fill="#ffffb3" stroke="#000000" points="3797.0532,-122 3632.9468,-122 3632.9468,-86 3797.0532,-86 3797.0532,-122"/>
<text text-anchor="middle" x="3715" y="-99.8" font-family="Times,serif" font-size="14.00" fill="#000000">AdminContentComponent</text>
</g>
<!-- AdminContentComponent&#45;&gt;AppModule -->
<g id="edge12" class="edge">
<title>AdminContentComponent&#45;&gt;AppModule</title>
<path fill="none" stroke="#000000" d="M3715,-122.0336C3715,-139.0597 3715,-162 3715,-162 3715,-162 2789.6679,-162 2789.6679,-162"/>
<polygon fill="#000000" stroke="#000000" points="2789.668,-158.5001 2779.6679,-162 2789.6679,-165.5001 2789.668,-158.5001"/>
</g>
<!-- AdminNewsMainComponent -->
<g id="node13" class="node">
<title>AdminNewsMainComponent</title>
<polygon fill="#ffffb3" stroke="#000000" points="3614.6428,-122 3433.3572,-122 3433.3572,-86 3614.6428,-86 3614.6428,-122"/>
<text text-anchor="middle" x="3524" y="-99.8" font-family="Times,serif" font-size="14.00" fill="#000000">AdminNewsMainComponent</text>
</g>
<!-- AdminNewsMainComponent&#45;&gt;AppModule -->
<g id="edge13" class="edge">
<title>AdminNewsMainComponent&#45;&gt;AppModule</title>
<path fill="none" stroke="#000000" d="M3524,-122.027C3524,-138.3976 3524,-160 3524,-160 3524,-160 2789.7038,-160 2789.7038,-160"/>
<polygon fill="#000000" stroke="#000000" points="2789.7039,-156.5001 2779.7038,-160 2789.7038,-163.5001 2789.7039,-156.5001"/>
</g>
<!-- AdminTvMainComponent -->
<g id="node14" class="node">
<title>AdminTvMainComponent</title>
<polygon fill="#ffffb3" stroke="#000000" points="3415.8229,-122 3250.1771,-122 3250.1771,-86 3415.8229,-86 3415.8229,-122"/>
<text text-anchor="middle" x="3333" y="-99.8" font-family="Times,serif" font-size="14.00" fill="#000000">AdminTvMainComponent</text>
</g>
<!-- AdminTvMainComponent&#45;&gt;AppModule -->
<g id="edge14" class="edge">
<title>AdminTvMainComponent&#45;&gt;AppModule</title>
<path fill="none" stroke="#000000" d="M3333,-122.2819C3333,-137.9478 3333,-158 3333,-158 3333,-158 2789.8392,-158 2789.8392,-158"/>
<polygon fill="#000000" stroke="#000000" points="2789.8393,-154.5001 2779.8392,-158 2789.8392,-161.5001 2789.8393,-154.5001"/>
</g>
<!-- AdminMusicMainComponent -->
<g id="node15" class="node">
<title>AdminMusicMainComponent</title>
<polygon fill="#ffffb3" stroke="#000000" points="3232.2646,-122 3047.7354,-122 3047.7354,-86 3232.2646,-86 3232.2646,-122"/>
<text text-anchor="middle" x="3140" y="-99.8" font-family="Times,serif" font-size="14.00" fill="#000000">AdminMusicMainComponent</text>
</g>
<!-- AdminMusicMainComponent&#45;&gt;AppModule -->
<g id="edge15" class="edge">
<title>AdminMusicMainComponent&#45;&gt;AppModule</title>
<path fill="none" stroke="#000000" d="M3140,-122.1871C3140,-137.1824 3140,-156 3140,-156 3140,-156 2789.8834,-156 2789.8834,-156"/>
<polygon fill="#000000" stroke="#000000" points="2789.8834,-152.5001 2779.8834,-156 2789.8834,-159.5001 2789.8834,-152.5001"/>
</g>
<!-- AdminCelebMainComponent -->
<g id="node16" class="node">
<title>AdminCelebMainComponent</title>
<polygon fill="#ffffb3" stroke="#000000" points="3029.4269,-122 2846.5731,-122 2846.5731,-86 3029.4269,-86 3029.4269,-122"/>
<text text-anchor="middle" x="2938" y="-99.8" font-family="Times,serif" font-size="14.00" fill="#000000">AdminCelebMainComponent</text>
</g>
<!-- AdminCelebMainComponent&#45;&gt;AppModule -->
<g id="edge16" class="edge">
<title>AdminCelebMainComponent&#45;&gt;AppModule</title>
<path fill="none" stroke="#000000" d="M2938,-122.0511C2938,-136.373 2938,-154 2938,-154 2938,-154 2789.9266,-154 2789.9266,-154"/>
<polygon fill="#000000" stroke="#000000" points="2789.9266,-150.5001 2779.9266,-154 2789.9265,-157.5001 2789.9266,-150.5001"/>
</g>
<!-- AdminUsersMainComponent -->
<g id="node17" class="node">
<title>AdminUsersMainComponent</title>
<polygon fill="#ffffb3" stroke="#000000" points="2828.6414,-122 2647.3586,-122 2647.3586,-86 2828.6414,-86 2828.6414,-122"/>
<text text-anchor="middle" x="2738" y="-99.8" font-family="Times,serif" font-size="14.00" fill="#000000">AdminUsersMainComponent</text>
</g>
<!-- AdminUsersMainComponent&#45;&gt;AppModule -->
<g id="edge17" class="edge">
<title>AdminUsersMainComponent&#45;&gt;AppModule</title>
<path fill="none" stroke="#000000" d="M2738,-122.1061C2738,-122.1061 2738,-140.991 2738,-140.991"/>
<polygon fill="#000000" stroke="#000000" points="2734.5001,-140.9909 2738,-150.991 2741.5001,-140.991 2734.5001,-140.9909"/>
</g>
<!-- AdminVideoMainComponent -->
<g id="node18" class="node">
<title>AdminVideoMainComponent</title>
<polygon fill="#ffffb3" stroke="#000000" points="2628.9818,-122 2445.0182,-122 2445.0182,-86 2628.9818,-86 2628.9818,-122"/>
<text text-anchor="middle" x="2537" y="-99.8" font-family="Times,serif" font-size="14.00" fill="#000000">AdminVideoMainComponent</text>
</g>
<!-- AdminVideoMainComponent&#45;&gt;AppModule -->
<g id="edge18" class="edge">
<title>AdminVideoMainComponent&#45;&gt;AppModule</title>
<path fill="none" stroke="#000000" d="M2537,-122.0511C2537,-136.373 2537,-154 2537,-154 2537,-154 2685.8638,-154 2685.8638,-154"/>
<polygon fill="#000000" stroke="#000000" points="2685.8638,-157.5001 2695.8638,-154 2685.8638,-150.5001 2685.8638,-157.5001"/>
</g>
<!-- MainHomeComponent -->
<g id="node19" class="node">
<title>MainHomeComponent</title>
<polygon fill="#ffffb3" stroke="#000000" points="2426.594,-122 2281.406,-122 2281.406,-86 2426.594,-86 2426.594,-122"/>
<text text-anchor="middle" x="2354" y="-99.8" font-family="Times,serif" font-size="14.00" fill="#000000">MainHomeComponent</text>
</g>
<!-- MainHomeComponent&#45;&gt;AppModule -->
<g id="edge19" class="edge">
<title>MainHomeComponent&#45;&gt;AppModule</title>
<path fill="none" stroke="#000000" d="M2354,-122.1871C2354,-137.1824 2354,-156 2354,-156 2354,-156 2686.1743,-156 2686.1743,-156"/>
<polygon fill="#000000" stroke="#000000" points="2686.1743,-159.5001 2696.1743,-156 2686.1742,-152.5001 2686.1743,-159.5001"/>
</g>
<!-- MainNewsComponent -->
<g id="node20" class="node">
<title>MainNewsComponent</title>
<polygon fill="#ffffb3" stroke="#000000" points="2263.2548,-122 2120.7452,-122 2120.7452,-86 2263.2548,-86 2263.2548,-122"/>
<text text-anchor="middle" x="2192" y="-99.8" font-family="Times,serif" font-size="14.00" fill="#000000">MainNewsComponent</text>
</g>
<!-- MainNewsComponent&#45;&gt;AppModule -->
<g id="edge20" class="edge">
<title>MainNewsComponent&#45;&gt;AppModule</title>
<path fill="none" stroke="#000000" d="M2192,-122.2819C2192,-137.9478 2192,-158 2192,-158 2192,-158 2686.0629,-158 2686.0629,-158"/>
<polygon fill="#000000" stroke="#000000" points="2686.0629,-161.5001 2696.0629,-158 2686.0629,-154.5001 2686.0629,-161.5001"/>
</g>
<!-- AdminNewsViewComponent -->
<g id="node21" class="node">
<title>AdminNewsViewComponent</title>
<polygon fill="#ffffb3" stroke="#000000" points="2102.4115,-122 1919.5885,-122 1919.5885,-86 2102.4115,-86 2102.4115,-122"/>
<text text-anchor="middle" x="2011" y="-99.8" font-family="Times,serif" font-size="14.00" fill="#000000">AdminNewsViewComponent</text>
</g>
<!-- AdminNewsViewComponent&#45;&gt;AppModule -->
<g id="edge21" class="edge">
<title>AdminNewsViewComponent&#45;&gt;AppModule</title>
<path fill="none" stroke="#000000" d="M2011,-122.027C2011,-138.3976 2011,-160 2011,-160 2011,-160 2686.3022,-160 2686.3022,-160"/>
<polygon fill="#000000" stroke="#000000" points="2686.3022,-163.5001 2696.3022,-160 2686.3021,-156.5001 2686.3022,-163.5001"/>
</g>
<!-- AdminNewsCategoryComponent -->
<g id="node22" class="node">
<title>AdminNewsCategoryComponent</title>
<polygon fill="#ffffb3" stroke="#000000" points="1901.91,-122 1698.09,-122 1698.09,-86 1901.91,-86 1901.91,-122"/>
<text text-anchor="middle" x="1800" y="-99.8" font-family="Times,serif" font-size="14.00" fill="#000000">AdminNewsCategoryComponent</text>
</g>
<!-- AdminNewsCategoryComponent&#45;&gt;AppModule -->
<g id="edge22" class="edge">
<title>AdminNewsCategoryComponent&#45;&gt;AppModule</title>
<path fill="none" stroke="#000000" d="M1800,-122.0336C1800,-139.0597 1800,-162 1800,-162 1800,-162 2686.1799,-162 2686.1799,-162"/>
<polygon fill="#000000" stroke="#000000" points="2686.18,-165.5001 2696.1799,-162 2686.1799,-158.5001 2686.18,-165.5001"/>
</g>
<!-- SearchPipe -->
<g id="node23" class="node">
<title>SearchPipe</title>
<polygon fill="#ffffb3" stroke="#000000" points="1680.4748,-122 1601.5252,-122 1601.5252,-86 1680.4748,-86 1680.4748,-122"/>
<text text-anchor="middle" x="1641" y="-99.8" font-family="Times,serif" font-size="14.00" fill="#000000">SearchPipe</text>
</g>
<!-- SearchPipe&#45;&gt;AppModule -->
<g id="edge23" class="edge">
<title>SearchPipe&#45;&gt;AppModule</title>
<path fill="none" stroke="#000000" d="M1641,-122.002C1641,-139.6754 1641,-164 1641,-164 1641,-164 2686.3359,-164 2686.3359,-164"/>
<polygon fill="#000000" stroke="#000000" points="2686.3359,-167.5001 2696.3359,-164 2686.3358,-160.5001 2686.3359,-167.5001"/>
</g>
<!-- MainNewsDetailComponent -->
<g id="node24" class="node">
<title>MainNewsDetailComponent</title>
<polygon fill="#ffffb3" stroke="#000000" points="1583.4622,-122 1406.5378,-122 1406.5378,-86 1583.4622,-86 1583.4622,-122"/>
<text text-anchor="middle" x="1495" y="-99.8" font-family="Times,serif" font-size="14.00" fill="#000000">MainNewsDetailComponent</text>
</g>
<!-- MainNewsDetailComponent&#45;&gt;AppModule -->
<g id="edge24" class="edge">
<title>MainNewsDetailComponent&#45;&gt;AppModule</title>
<path fill="none" stroke="#000000" d="M1495,-122.2667C1495,-140.5552 1495,-166 1495,-166 1495,-166 2686.2877,-166 2686.2877,-166"/>
<polygon fill="#000000" stroke="#000000" points="2686.2878,-169.5001 2696.2877,-166 2686.2877,-162.5001 2686.2878,-169.5001"/>
</g>
<!-- MainMusicComponent -->
<g id="node25" class="node">
<title>MainMusicComponent</title>
<polygon fill="#ffffb3" stroke="#000000" points="1388.8767,-122 1243.1233,-122 1243.1233,-86 1388.8767,-86 1388.8767,-122"/>
<text text-anchor="middle" x="1316" y="-99.8" font-family="Times,serif" font-size="14.00" fill="#000000">MainMusicComponent</text>
</g>
<!-- MainMusicComponent&#45;&gt;AppModule -->
<g id="edge25" class="edge">
<title>MainMusicComponent&#45;&gt;AppModule</title>
<path fill="none" stroke="#000000" d="M1316,-122.1686C1316,-141.0898 1316,-168 1316,-168 1316,-168 2686.2123,-168 2686.2123,-168"/>
<polygon fill="#000000" stroke="#000000" points="2686.2124,-171.5001 2696.2123,-168 2686.2123,-164.5001 2686.2124,-171.5001"/>
</g>
<!-- AlbumsComponent -->
<g id="node26" class="node">
<title>AlbumsComponent</title>
<polygon fill="#ffffb3" stroke="#000000" points="1224.6652,-122 1099.3348,-122 1099.3348,-86 1224.6652,-86 1224.6652,-122"/>
<text text-anchor="middle" x="1162" y="-99.8" font-family="Times,serif" font-size="14.00" fill="#000000">AlbumsComponent</text>
</g>
<!-- AlbumsComponent&#45;&gt;AppModule -->
<g id="edge26" class="edge">
<title>AlbumsComponent&#45;&gt;AppModule</title>
<path fill="none" stroke="#000000" d="M1162,-122.308C1162,-142.1455 1162,-171 1162,-171 1162,-171 2686.2518,-171 2686.2518,-171"/>
<polygon fill="#000000" stroke="#000000" points="2686.2518,-174.5001 2696.2518,-171 2686.2517,-167.5001 2686.2518,-174.5001"/>
</g>
<!-- ArtistsComponent -->
<g id="node27" class="node">
<title>ArtistsComponent</title>
<polygon fill="#ffffb3" stroke="#000000" points="1081.1611,-122 962.8389,-122 962.8389,-86 1081.1611,-86 1081.1611,-122"/>
<text text-anchor="middle" x="1022" y="-99.8" font-family="Times,serif" font-size="14.00" fill="#000000">ArtistsComponent</text>
</g>
<!-- ArtistsComponent&#45;&gt;AppModule -->
<g id="edge27" class="edge">
<title>ArtistsComponent&#45;&gt;AppModule</title>
<path fill="none" stroke="#000000" d="M1022,-122.1289C1022,-142.5724 1022,-173 1022,-173 1022,-173 2686.0079,-173 2686.0079,-173"/>
<polygon fill="#000000" stroke="#000000" points="2686.008,-176.5001 2696.0079,-173 2686.0079,-169.5001 2686.008,-176.5001"/>
</g>
<!-- AlbumComponent -->
<g id="node28" class="node">
<title>AlbumComponent</title>
<polygon fill="#ffffb3" stroke="#000000" points="945.2204,-122 824.7796,-122 824.7796,-86 945.2204,-86 945.2204,-122"/>
<text text-anchor="middle" x="885" y="-99.8" font-family="Times,serif" font-size="14.00" fill="#000000">AlbumComponent</text>
</g>
<!-- AlbumComponent&#45;&gt;AppModule -->
<g id="edge28" class="edge">
<title>AlbumComponent&#45;&gt;AppModule</title>
<path fill="none" stroke="#000000" d="M885,-122.2843C885,-143.3211 885,-175 885,-175 885,-175 2686.2588,-175 2686.2588,-175"/>
<polygon fill="#000000" stroke="#000000" points="2686.2588,-178.5001 2696.2588,-175 2686.2587,-171.5001 2686.2588,-178.5001"/>
</g>
<!-- ArtistComponent -->
<g id="node29" class="node">
<title>ArtistComponent</title>
<polygon fill="#ffffb3" stroke="#000000" points="806.7162,-122 693.2838,-122 693.2838,-86 806.7162,-86 806.7162,-122"/>
<text text-anchor="middle" x="750" y="-99.8" font-family="Times,serif" font-size="14.00" fill="#000000">ArtistComponent</text>
</g>
<!-- ArtistComponent&#45;&gt;AppModule -->
<g id="edge29" class="edge">
<title>ArtistComponent&#45;&gt;AppModule</title>
<path fill="none" stroke="#000000" d="M750,-122.0449C750,-143.6623 750,-177 750,-177 750,-177 2686.0191,-177 2686.0191,-177"/>
<polygon fill="#000000" stroke="#000000" points="2686.0191,-180.5001 2696.0191,-177 2686.0191,-173.5001 2686.0191,-180.5001"/>
</g>
<!-- MusicVideoComponent -->
<g id="node30" class="node">
<title>MusicVideoComponent</title>
<polygon fill="#ffffb3" stroke="#000000" points="675.0393,-122 524.9607,-122 524.9607,-86 675.0393,-86 675.0393,-122"/>
<text text-anchor="middle" x="600" y="-99.8" font-family="Times,serif" font-size="14.00" fill="#000000">MusicVideoComponent</text>
</g>
<!-- MusicVideoComponent&#45;&gt;AppModule -->
<g id="edge30" class="edge">
<title>MusicVideoComponent&#45;&gt;AppModule</title>
<path fill="none" stroke="#000000" d="M600,-122.1554C600,-144.3519 600,-179 600,-179 600,-179 2686.2513,-179 2686.2513,-179"/>
<polygon fill="#000000" stroke="#000000" points="2686.2513,-182.5001 2696.2513,-179 2686.2513,-175.5001 2686.2513,-182.5001"/>
</g>
<!-- MusicHomeComponent -->
<g id="node31" class="node">
<title>MusicHomeComponent</title>
<polygon fill="#ffffb3" stroke="#000000" points="506.0393,-122 355.9607,-122 355.9607,-86 506.0393,-86 506.0393,-122"/>
<text text-anchor="middle" x="431" y="-99.8" font-family="Times,serif" font-size="14.00" fill="#000000">MusicHomeComponent</text>
</g>
<!-- MusicHomeComponent&#45;&gt;AppModule -->
<g id="edge31" class="edge">
<title>MusicHomeComponent&#45;&gt;AppModule</title>
<path fill="none" stroke="#000000" d="M431,-122.2479C431,-145.0179 431,-181 431,-181 431,-181 2685.9883,-181 2685.9883,-181"/>
<polygon fill="#000000" stroke="#000000" points="2685.9884,-184.5001 2695.9883,-181 2685.9883,-177.5001 2685.9884,-184.5001"/>
</g>
<!-- MusicPlayerPageComponent -->
<g id="node32" class="node">
<title>MusicPlayerPageComponent</title>
<polygon fill="#ffffb3" stroke="#000000" points="337.8019,-122 158.1981,-122 158.1981,-86 337.8019,-86 337.8019,-122"/>
<text text-anchor="middle" x="248" y="-99.8" font-family="Times,serif" font-size="14.00" fill="#000000">MusicPlayerPageComponent</text>
</g>
<!-- MusicPlayerPageComponent&#45;&gt;AppModule -->
<g id="edge32" class="edge">
<title>MusicPlayerPageComponent&#45;&gt;AppModule</title>
<path fill="none" stroke="#000000" d="M248,-122.3228C248,-145.6602 248,-183 248,-183 248,-183 2686.0855,-183 2686.0855,-183"/>
<polygon fill="#000000" stroke="#000000" points="2686.0855,-186.5001 2696.0855,-183 2686.0854,-179.5001 2686.0855,-186.5001"/>
</g>
<!-- AppComponent  -->
<g id="node35" class="node">
<title>AppComponent </title>
<polygon fill="#80b1d3" stroke="#000000" points="2792.439,-252 2683.561,-252 2683.561,-216 2792.439,-216 2792.439,-252"/>
<text text-anchor="middle" x="2738" y="-229.8" font-family="Times,serif" font-size="14.00" fill="#000000">AppComponent </text>
</g>
<!-- AppModule&#45;&gt;AppComponent  -->
<g id="edge34" class="edge">
<title>AppModule&#45;&gt;AppComponent </title>
<path fill="none" stroke="#000000" stroke-dasharray="1,5" d="M2738,-187.1061C2738,-187.1061 2738,-205.991 2738,-205.991"/>
<polygon fill="#000000" stroke="#000000" points="2734.5001,-205.9909 2738,-215.991 2741.5001,-205.991 2734.5001,-205.9909"/>
</g>
<!-- AfrobeatRouting -->
<g id="node34" class="node">
<title>AfrobeatRouting</title>
<polygon fill="#8dd3c7" stroke="#000000" points="134.3655,-122 131.3655,-126 110.3655,-126 107.3655,-122 23.6345,-122 23.6345,-86 134.3655,-86 134.3655,-122"/>
<text text-anchor="middle" x="79" y="-99.8" font-family="Times,serif" font-size="14.00" fill="#000000">AfrobeatRouting</text>
</g>
<!-- AfrobeatRouting&#45;&gt;AppModule -->
<g id="edge33" class="edge">
<title>AfrobeatRouting&#45;&gt;AppModule</title>
<path fill="none" stroke="#000000" d="M79,-122.3802C79,-146.2785 79,-185 79,-185 79,-185 2686.2335,-185 2686.2335,-185"/>
<polygon fill="#000000" stroke="#000000" points="2686.2335,-188.5001 2696.2335,-185 2686.2334,-181.5001 2686.2335,-188.5001"/>
</g>
</g>
</svg>
